<svg width="150" height="150" viewBox="0 0 150 150" fill="none" xmlns="http://www.w3.org/2000/svg">
<rect width="150" height="150" fill="#232536"/>
<path d="M76.4551 25.9512C82.1191 25.9512 87.2949 26.7324 91.9824 28.2949C96.6699 29.8574 100.625 31.6641 103.848 33.7148V53.7832C100.332 51.6348 96.5723 49.6328 92.5684 47.7773C88.5645 45.9219 84.0234 44.9941 78.9453 44.9941C76.4062 44.9941 73.8672 45.3848 71.3281 46.166C68.8867 46.9473 66.8359 48.1191 65.1758 49.6816C63.6133 51.2441 62.832 53.2461 62.832 55.6875C62.832 58.9102 64.248 61.3516 67.0801 63.0117C69.9121 64.6719 73.3789 66.332 77.4805 67.9922L89.4922 72.9727C96.3281 75.9023 101.357 79.4668 104.58 83.666C107.803 87.8652 109.414 92.6504 109.414 98.0215C109.414 103.881 107.705 109.057 104.287 113.549C100.967 117.943 96.4746 121.41 90.8105 123.949C85.2441 126.488 79.043 127.758 72.207 127.758C66.4453 127.758 60.9277 126.781 55.6543 124.828C50.3809 122.875 45.791 120.482 41.8848 117.65V97.582C46.1816 100.707 50.918 103.344 56.0938 105.492C61.2695 107.641 66.7871 108.715 72.6465 108.715C76.748 108.715 80.2637 107.934 83.1934 106.371C86.123 104.711 87.5879 102.27 87.5879 99.0469C87.5879 96.5078 86.3672 94.457 83.9258 92.8945C81.582 91.2344 78.9941 89.8672 76.1621 88.793L61.0742 82.9336C53.457 80.0039 48.2812 76.1953 45.5469 71.5078C42.9102 66.7227 41.5918 61.4492 41.5918 55.6875C41.5918 49.7305 43.2031 44.5547 46.4258 40.1602C49.7461 35.668 54.043 32.2012 59.3164 29.7598C64.5898 27.2207 70.3027 25.9512 76.4551 25.9512Z" fill="white"/>
</svg>
