<svg width="48" height="46" viewBox="0 0 48 46" fill="none" xmlns="http://www.w3.org/2000/svg">
<path d="M39 48H9C4.029 48 0 43.971 0 39V9C0 4.029 4.029 0 9 0H39C43.971 0 48 4.029 48 9V39C48 43.971 43.971 48 39 48Z" fill="#FBF6EA"/>
<g clip-path="url(#clip0_68_648)">
<path d="M27.5176 17.0312C27.5176 17.8065 28.1486 18.4375 28.9238 18.4375H33.1042C33.0283 17.4479 32.7988 16.5021 32.4316 15.625H28.9238C28.1486 15.625 27.5176 16.256 27.5176 17.0312Z" fill="#232536"/>
<path d="M18.377 34H26.8145C27.2031 34 27.5176 33.6855 27.5176 33.2969V29.6875H28.9238V25.1172L21.893 19.8438H15.5645C15.1758 19.8438 14.8613 20.1582 14.8613 20.5469C14.8613 23.0373 15.8824 25.4228 17.6738 27.1428V33.2969C17.6738 33.6855 17.9883 34 18.377 34V34Z" fill="#FFD050"/>
<path d="M24.002 10C23.6133 10 23.2988 10.3145 23.2988 10.7031V11.4062H20.3568C20.0656 10.5896 19.2924 10 18.377 10C17.2138 10 16.2676 10.9462 16.2676 12.1094C16.2676 13.2725 17.2138 14.2188 18.377 14.2188C19.2924 14.2188 20.0656 13.6292 20.3568 12.8125H23.2988V15.625H16.1381C15.8468 14.8083 15.0737 14.2188 14.1582 14.2188C12.995 14.2188 12.002 15.165 12.002 16.3281C12.002 17.4913 12.995 18.4375 14.1582 18.4375C15.0737 18.4375 15.8468 17.8479 16.1381 17.0312H23.2988V19.141L30.0485 24.2033C30.2257 24.3358 30.3301 24.5445 30.3301 24.7656V29.6875H31.0332C32.1964 29.6875 33.1426 28.7413 33.1426 27.5781V24.0625H35.2988C35.5584 24.0625 35.7966 23.9197 35.9189 23.691C36.0411 23.4624 36.0274 23.185 35.8839 22.9693L33.7533 19.8438H28.9238C27.3727 19.8438 26.1113 18.5824 26.1113 17.0312C26.1113 15.4801 27.3727 14.2188 28.9238 14.2188H31.6897C30.0628 11.6865 27.2291 10 24.002 10V10Z" fill="#232536"/>
</g>
<defs>
<clipPath id="clip0_68_648">
<rect width="24" height="24" fill="white" transform="translate(12 10)"/>
</clipPath>
</defs>
</svg>
